<svg xmlns="http://www.w3.org/2000/svg" xmlns:xlink="http://www.w3.org/1999/xlink" width="500" zoomAndPan="magnify" viewBox="0 0 375 374.999991" height="500" preserveAspectRatio="xMidYMid meet" version="1.0"><defs><g/></defs><g fill="#000000" fill-opacity="1"><g transform="translate(87.069457, 221.107861)"><g><path d="M -13.34375 -73.890625 C -10.757812 -81.453125 -6.441406 -86.65625 -0.390625 -89.5 C 5.648438 -92.34375 16.363281 -93.765625 31.75 -93.765625 C 34.945312 -93.765625 43.035156 -93.628906 56.015625 -93.359375 C 65.441406 -93.097656 73.753906 -91.050781 80.953125 -87.21875 C 88.160156 -83.394531 93.785156 -77.992188 97.828125 -71.015625 C 101.878906 -64.035156 103.90625 -55.925781 103.90625 -46.6875 C 103.90625 -32.71875 99.476562 -21.441406 90.625 -12.859375 C 81.78125 -4.285156 70.242188 0 56.015625 0 L 10.796875 0 L 10.9375 -1.328125 L 12.53125 -1.328125 C 14.757812 -1.328125 16.671875 -2.0625 18.265625 -3.53125 C 19.867188 -5 20.804688 -6.800781 21.078125 -8.9375 L 21.078125 -89.359375 C 9.960938 -89.097656 2.09375 -87.363281 -2.53125 -84.15625 C -4.9375 -82.46875 -6.757812 -80.84375 -8 -79.28125 C -9.25 -77.726562 -10.539062 -75.753906 -11.875 -73.359375 Z M 29.75 -89.359375 L 29.75 -4 L 56.015625 -4 C 67.304688 -4 76.441406 -7.910156 83.421875 -15.734375 C 90.398438 -23.554688 93.890625 -33.875 93.890625 -46.6875 C 93.890625 -55.132812 92.3125 -62.578125 89.15625 -69.015625 C 86 -75.460938 81.550781 -80.460938 75.8125 -84.015625 C 70.082031 -87.578125 63.484375 -89.359375 56.015625 -89.359375 Z M 29.75 -89.359375 "/></g></g></g><g fill="#000000" fill-opacity="1"><g transform="translate(186.69745, 221.107861)"><g><path d="M 35.484375 -1.328125 L 37.21875 -1.328125 L 37.21875 0 L 8 0 L 8 -1.328125 L 9.734375 -1.328125 C 12.046875 -1.328125 14.023438 -2.148438 15.671875 -3.796875 C 17.316406 -5.441406 18.179688 -7.421875 18.265625 -9.734375 L 18.265625 -83.765625 C 18.179688 -86.078125 17.316406 -88.03125 15.671875 -89.625 C 14.023438 -91.226562 12.046875 -92.03125 9.734375 -92.03125 L 8 -92.03125 L 8 -93.359375 L 37.21875 -93.359375 L 37.21875 -92.03125 L 35.484375 -92.03125 C 33.171875 -92.03125 31.191406 -91.226562 29.546875 -89.625 C 27.898438 -88.03125 27.03125 -86.078125 26.9375 -83.765625 L 26.9375 -9.734375 C 26.9375 -7.421875 27.78125 -5.441406 29.46875 -3.796875 C 31.164062 -2.148438 33.171875 -1.328125 35.484375 -1.328125 Z M 127.90625 20 L 127.90625 21.34375 C 124.53125 22.144531 121.148438 22.546875 117.765625 22.546875 C 103.179688 22.546875 89.046875 15.253906 75.359375 0.671875 L 31.203125 -46.421875 L 62.6875 -85.890625 C 63.394531 -86.785156 63.75 -87.585938 63.75 -88.296875 C 63.75 -89.003906 63.617188 -89.625 63.359375 -90.15625 C 62.640625 -91.488281 61.347656 -92.15625 59.484375 -92.15625 L 58.15625 -92.15625 L 58.15625 -93.359375 L 86.296875 -93.359375 L 86.296875 -92.15625 L 85.765625 -92.15625 C 79.890625 -92.15625 75.085938 -90.066406 71.359375 -85.890625 L 40.28125 -50.015625 L 85.625 -1.59375 C 91.488281 4.71875 98.085938 9.894531 105.421875 13.9375 C 112.765625 17.976562 120.257812 20 127.90625 20 Z M 127.90625 20 "/></g></g></g><g fill="#000000" fill-opacity="1"><g transform="translate(101.219911, 243.205901)"><g><path d="M 5.5625 -4.625 C 5.5625 -4.070312 5.390625 -3.625 5.046875 -3.28125 C 4.703125 -2.945312 4.257812 -2.78125 3.71875 -2.78125 L 1.65625 -2.78125 L 1.65625 0 L 0.8125 0 L 0.8125 -6.5625 L 3.53125 -6.5625 C 4.175781 -6.5625 4.675781 -6.394531 5.03125 -6.0625 C 5.382812 -5.726562 5.5625 -5.25 5.5625 -4.625 Z M 1.65625 -3.515625 L 3.40625 -3.515625 C 3.800781 -3.515625 4.113281 -3.613281 4.34375 -3.8125 C 4.570312 -4.019531 4.6875 -4.300781 4.6875 -4.65625 C 4.6875 -5.019531 4.570312 -5.300781 4.34375 -5.5 C 4.113281 -5.707031 3.800781 -5.8125 3.40625 -5.8125 L 1.65625 -5.8125 Z M 1.65625 -3.515625 "/></g></g></g><g fill="#000000" fill-opacity="1"><g transform="translate(113.600895, 243.205901)"><g><path d="M 4.953125 -2.984375 L 1.578125 -2.984375 L 1.578125 0 L 0.75 0 L 0.75 -6.5625 L 1.578125 -6.5625 L 1.578125 -3.71875 L 4.953125 -3.71875 L 4.953125 -6.5625 L 5.796875 -6.5625 L 5.796875 0 L 4.953125 0 Z M 4.953125 -2.984375 "/></g></g></g><g fill="#000000" fill-opacity="1"><g transform="translate(126.47687, 243.205901)"><g><path d="M 6.6875 -3.1875 C 6.6875 -2.707031 6.609375 -2.257812 6.453125 -1.84375 C 6.304688 -1.4375 6.097656 -1.078125 5.828125 -0.765625 C 5.566406 -0.460938 5.234375 -0.222656 4.828125 -0.046875 C 4.429688 0.117188 3.992188 0.203125 3.515625 0.203125 C 2.566406 0.203125 1.800781 -0.109375 1.21875 -0.734375 C 0.632812 -1.367188 0.34375 -2.203125 0.34375 -3.234375 C 0.34375 -4.253906 0.632812 -5.082031 1.21875 -5.71875 C 1.800781 -6.351562 2.5625 -6.671875 3.5 -6.671875 C 4.457031 -6.671875 5.226562 -6.351562 5.8125 -5.71875 C 6.394531 -5.082031 6.6875 -4.238281 6.6875 -3.1875 Z M 3.5 -5.9375 C 2.800781 -5.9375 2.238281 -5.6875 1.8125 -5.1875 C 1.382812 -4.6875 1.171875 -4.03125 1.171875 -3.21875 C 1.171875 -2.414062 1.382812 -1.765625 1.8125 -1.265625 C 2.238281 -0.773438 2.804688 -0.53125 3.515625 -0.53125 C 4.203125 -0.53125 4.757812 -0.773438 5.1875 -1.265625 C 5.625 -1.753906 5.84375 -2.394531 5.84375 -3.1875 C 5.84375 -4.019531 5.628906 -4.6875 5.203125 -5.1875 C 4.773438 -5.6875 4.207031 -5.9375 3.5 -5.9375 Z M 3.5 -5.9375 "/></g></g></g><g fill="#000000" fill-opacity="1"><g transform="translate(139.85785, 243.205901)"><g><path d="M 3.1875 -5.8125 L 3.1875 0 L 2.34375 0 L 2.34375 -5.8125 L 0.1875 -5.8125 L 0.1875 -6.5625 L 5.34375 -6.5625 L 5.34375 -5.8125 Z M 3.1875 -5.8125 "/></g></g></g><g fill="#000000" fill-opacity="1"><g transform="translate(151.73383, 243.205901)"><g><path d="M 6.6875 -3.1875 C 6.6875 -2.707031 6.609375 -2.257812 6.453125 -1.84375 C 6.304688 -1.4375 6.097656 -1.078125 5.828125 -0.765625 C 5.566406 -0.460938 5.234375 -0.222656 4.828125 -0.046875 C 4.429688 0.117188 3.992188 0.203125 3.515625 0.203125 C 2.566406 0.203125 1.800781 -0.109375 1.21875 -0.734375 C 0.632812 -1.367188 0.34375 -2.203125 0.34375 -3.234375 C 0.34375 -4.253906 0.632812 -5.082031 1.21875 -5.71875 C 1.800781 -6.351562 2.5625 -6.671875 3.5 -6.671875 C 4.457031 -6.671875 5.226562 -6.351562 5.8125 -5.71875 C 6.394531 -5.082031 6.6875 -4.238281 6.6875 -3.1875 Z M 3.5 -5.9375 C 2.800781 -5.9375 2.238281 -5.6875 1.8125 -5.1875 C 1.382812 -4.6875 1.171875 -4.03125 1.171875 -3.21875 C 1.171875 -2.414062 1.382812 -1.765625 1.8125 -1.265625 C 2.238281 -0.773438 2.804688 -0.53125 3.515625 -0.53125 C 4.203125 -0.53125 4.757812 -0.773438 5.1875 -1.265625 C 5.625 -1.753906 5.84375 -2.394531 5.84375 -3.1875 C 5.84375 -4.019531 5.628906 -4.6875 5.203125 -5.1875 C 4.773438 -5.6875 4.207031 -5.9375 3.5 -5.9375 Z M 3.5 -5.9375 "/></g></g></g><g fill="#000000" fill-opacity="1"><g transform="translate(165.114807, 243.205901)"><g><path d="M 1.234375 -3.265625 C 1.234375 -3.035156 1.253906 -2.800781 1.296875 -2.5625 C 1.335938 -2.332031 1.410156 -2.09375 1.515625 -1.84375 C 1.628906 -1.59375 1.769531 -1.375 1.9375 -1.1875 C 2.101562 -1 2.328125 -0.84375 2.609375 -0.71875 C 2.898438 -0.59375 3.222656 -0.53125 3.578125 -0.53125 C 4.171875 -0.53125 4.660156 -0.71875 5.046875 -1.09375 C 5.441406 -1.476562 5.640625 -1.960938 5.640625 -2.546875 L 5.640625 -2.71875 L 3.65625 -2.71875 L 3.65625 -3.46875 L 6.390625 -3.46875 L 6.390625 0.03125 L 5.84375 0.03125 L 5.640625 -0.84375 C 5.328125 -0.488281 4.984375 -0.222656 4.609375 -0.046875 C 4.242188 0.117188 3.84375 0.203125 3.40625 0.203125 C 2.820312 0.203125 2.300781 0.0625 1.84375 -0.21875 C 1.382812 -0.507812 1.023438 -0.914062 0.765625 -1.4375 C 0.515625 -1.957031 0.390625 -2.550781 0.390625 -3.21875 C 0.390625 -3.5 0.414062 -3.785156 0.46875 -4.078125 C 0.53125 -4.367188 0.632812 -4.671875 0.78125 -4.984375 C 0.925781 -5.304688 1.113281 -5.585938 1.34375 -5.828125 C 1.570312 -6.066406 1.875 -6.265625 2.25 -6.421875 C 2.632812 -6.585938 3.066406 -6.671875 3.546875 -6.671875 C 4.296875 -6.671875 4.910156 -6.484375 5.390625 -6.109375 C 5.878906 -5.742188 6.179688 -5.226562 6.296875 -4.5625 L 5.4375 -4.5625 C 5.34375 -4.988281 5.128906 -5.320312 4.796875 -5.5625 C 4.460938 -5.8125 4.046875 -5.9375 3.546875 -5.9375 C 2.847656 -5.9375 2.285156 -5.691406 1.859375 -5.203125 C 1.441406 -4.710938 1.234375 -4.066406 1.234375 -3.265625 Z M 1.234375 -3.265625 "/></g></g></g><g fill="#000000" fill-opacity="1"><g transform="translate(178.495784, 243.205901)"><g><path d="M 4.828125 -3.234375 C 5.046875 -3.140625 5.222656 -3.019531 5.359375 -2.875 C 5.492188 -2.738281 5.582031 -2.59375 5.625 -2.4375 C 5.675781 -2.28125 5.707031 -2.117188 5.71875 -1.953125 C 5.726562 -1.785156 5.726562 -1.613281 5.71875 -1.4375 C 5.71875 -1.269531 5.71875 -1.109375 5.71875 -0.953125 C 5.726562 -0.804688 5.765625 -0.664062 5.828125 -0.53125 C 5.890625 -0.394531 5.984375 -0.285156 6.109375 -0.203125 L 6.109375 0 L 5.09375 0 C 4.976562 -0.28125 4.921875 -0.632812 4.921875 -1.0625 L 4.921875 -1.65625 C 4.921875 -2.0625 4.832031 -2.359375 4.65625 -2.546875 C 4.476562 -2.734375 4.203125 -2.828125 3.828125 -2.828125 L 1.671875 -2.828125 L 1.671875 0 L 0.84375 0 L 0.84375 -6.5625 L 3.859375 -6.5625 C 4.503906 -6.5625 5 -6.410156 5.34375 -6.109375 C 5.6875 -5.804688 5.859375 -5.375 5.859375 -4.8125 C 5.859375 -4.425781 5.773438 -4.113281 5.609375 -3.875 C 5.453125 -3.632812 5.191406 -3.421875 4.828125 -3.234375 Z M 4.984375 -4.6875 C 4.984375 -4.914062 4.953125 -5.101562 4.890625 -5.25 C 4.828125 -5.40625 4.734375 -5.519531 4.609375 -5.59375 C 4.484375 -5.675781 4.347656 -5.734375 4.203125 -5.765625 C 4.054688 -5.796875 3.882812 -5.8125 3.6875 -5.8125 L 1.671875 -5.8125 L 1.671875 -3.5625 L 3.6875 -3.5625 C 4.132812 -3.5625 4.460938 -3.648438 4.671875 -3.828125 C 4.878906 -4.015625 4.984375 -4.300781 4.984375 -4.6875 Z M 4.984375 -4.6875 "/></g></g></g><g fill="#000000" fill-opacity="1"><g transform="translate(191.371756, 243.205901)"><g><path d="M 4.265625 -1.96875 L 1.734375 -1.96875 L 1.046875 0 L 0.15625 0 L 2.5 -6.5625 L 3.578125 -6.5625 L 5.875 0 L 4.9375 0 Z M 4.03125 -2.671875 L 3.03125 -5.671875 L 1.9375 -2.671875 Z M 4.03125 -2.671875 "/></g></g></g><g fill="#000000" fill-opacity="1"><g transform="translate(203.752738, 243.205901)"><g><path d="M 5.5625 -4.625 C 5.5625 -4.070312 5.390625 -3.625 5.046875 -3.28125 C 4.703125 -2.945312 4.257812 -2.78125 3.71875 -2.78125 L 1.65625 -2.78125 L 1.65625 0 L 0.8125 0 L 0.8125 -6.5625 L 3.53125 -6.5625 C 4.175781 -6.5625 4.675781 -6.394531 5.03125 -6.0625 C 5.382812 -5.726562 5.5625 -5.25 5.5625 -4.625 Z M 1.65625 -3.515625 L 3.40625 -3.515625 C 3.800781 -3.515625 4.113281 -3.613281 4.34375 -3.8125 C 4.570312 -4.019531 4.6875 -4.300781 4.6875 -4.65625 C 4.6875 -5.019531 4.570312 -5.300781 4.34375 -5.5 C 4.113281 -5.707031 3.800781 -5.8125 3.40625 -5.8125 L 1.65625 -5.8125 Z M 1.65625 -3.515625 "/></g></g></g><g fill="#000000" fill-opacity="1"><g transform="translate(216.133719, 243.205901)"><g><path d="M 4.953125 -2.984375 L 1.578125 -2.984375 L 1.578125 0 L 0.75 0 L 0.75 -6.5625 L 1.578125 -6.5625 L 1.578125 -3.71875 L 4.953125 -3.71875 L 4.953125 -6.5625 L 5.796875 -6.5625 L 5.796875 0 L 4.953125 0 Z M 4.953125 -2.984375 "/></g></g></g><g fill="#000000" fill-opacity="1"><g transform="translate(229.009692, 243.205901)"><g><path d="M 1.640625 -2.984375 L 1.640625 -0.734375 L 5.515625 -0.734375 L 5.515625 0 L 0.8125 0 L 0.8125 -6.5625 L 5.34375 -6.5625 L 5.34375 -5.8125 L 1.640625 -5.8125 L 1.640625 -3.71875 L 5.21875 -3.71875 L 5.21875 -2.984375 Z M 1.640625 -2.984375 "/></g></g></g><g fill="#000000" fill-opacity="1"><g transform="translate(241.390673, 243.205901)"><g><path d="M 4.828125 -3.234375 C 5.046875 -3.140625 5.222656 -3.019531 5.359375 -2.875 C 5.492188 -2.738281 5.582031 -2.59375 5.625 -2.4375 C 5.675781 -2.28125 5.707031 -2.117188 5.71875 -1.953125 C 5.726562 -1.785156 5.726562 -1.613281 5.71875 -1.4375 C 5.71875 -1.269531 5.71875 -1.109375 5.71875 -0.953125 C 5.726562 -0.804688 5.765625 -0.664062 5.828125 -0.53125 C 5.890625 -0.394531 5.984375 -0.285156 6.109375 -0.203125 L 6.109375 0 L 5.09375 0 C 4.976562 -0.28125 4.921875 -0.632812 4.921875 -1.0625 L 4.921875 -1.65625 C 4.921875 -2.0625 4.832031 -2.359375 4.65625 -2.546875 C 4.476562 -2.734375 4.203125 -2.828125 3.828125 -2.828125 L 1.671875 -2.828125 L 1.671875 0 L 0.84375 0 L 0.84375 -6.5625 L 3.859375 -6.5625 C 4.503906 -6.5625 5 -6.410156 5.34375 -6.109375 C 5.6875 -5.804688 5.859375 -5.375 5.859375 -4.8125 C 5.859375 -4.425781 5.773438 -4.113281 5.609375 -3.875 C 5.453125 -3.632812 5.191406 -3.421875 4.828125 -3.234375 Z M 4.984375 -4.6875 C 4.984375 -4.914062 4.953125 -5.101562 4.890625 -5.25 C 4.828125 -5.40625 4.734375 -5.519531 4.609375 -5.59375 C 4.484375 -5.675781 4.347656 -5.734375 4.203125 -5.765625 C 4.054688 -5.796875 3.882812 -5.8125 3.6875 -5.8125 L 1.671875 -5.8125 L 1.671875 -3.5625 L 3.6875 -3.5625 C 4.132812 -3.5625 4.460938 -3.648438 4.671875 -3.828125 C 4.878906 -4.015625 4.984375 -4.300781 4.984375 -4.6875 Z M 4.984375 -4.6875 "/></g></g></g><g fill="#000000" fill-opacity="1"><g transform="translate(98.319459, 221.107861)"><g><path d="M -13.34375 -73.890625 C -10.757812 -81.453125 -6.441406 -86.65625 -0.390625 -89.5 C 5.648438 -92.34375 16.363281 -93.765625 31.75 -93.765625 C 34.945312 -93.765625 43.035156 -93.628906 56.015625 -93.359375 C 65.441406 -93.097656 73.753906 -91.050781 80.953125 -87.21875 C 88.160156 -83.394531 93.785156 -77.992188 97.828125 -71.015625 C 101.878906 -64.035156 103.90625 -55.925781 103.90625 -46.6875 C 103.90625 -32.71875 99.476562 -21.441406 90.625 -12.859375 C 81.78125 -4.285156 70.242188 0 56.015625 0 L 10.796875 0 L 10.9375 -1.328125 L 12.53125 -1.328125 C 14.757812 -1.328125 16.671875 -2.0625 18.265625 -3.53125 C 19.867188 -5 20.804688 -6.800781 21.078125 -8.9375 L 21.078125 -89.359375 C 9.960938 -89.097656 2.09375 -87.363281 -2.53125 -84.15625 C -4.9375 -82.46875 -6.757812 -80.84375 -8 -79.28125 C -9.25 -77.726562 -10.539062 -75.753906 -11.875 -73.359375 Z M 29.75 -89.359375 L 29.75 -4 L 56.015625 -4 C 67.304688 -4 76.441406 -7.910156 83.421875 -15.734375 C 90.398438 -23.554688 93.890625 -33.875 93.890625 -46.6875 C 93.890625 -55.132812 92.3125 -62.578125 89.15625 -69.015625 C 86 -75.460938 81.550781 -80.460938 75.8125 -84.015625 C 70.082031 -87.578125 63.484375 -89.359375 56.015625 -89.359375 Z M 29.75 -89.359375 "/></g></g></g><g fill="#000000" fill-opacity="1"><g transform="translate(197.947453, 221.107861)"><g><path d="M 35.484375 -1.328125 L 37.21875 -1.328125 L 37.21875 0 L 8 0 L 8 -1.328125 L 9.734375 -1.328125 C 12.046875 -1.328125 14.023438 -2.148438 15.671875 -3.796875 C 17.316406 -5.441406 18.179688 -7.421875 18.265625 -9.734375 L 18.265625 -83.765625 C 18.179688 -86.078125 17.316406 -88.03125 15.671875 -89.625 C 14.023438 -91.226562 12.046875 -92.03125 9.734375 -92.03125 L 8 -92.03125 L 8 -93.359375 L 37.21875 -93.359375 L 37.21875 -92.03125 L 35.484375 -92.03125 C 33.171875 -92.03125 31.191406 -91.226562 29.546875 -89.625 C 27.898438 -88.03125 27.03125 -86.078125 26.9375 -83.765625 L 26.9375 -9.734375 C 26.9375 -7.421875 27.78125 -5.441406 29.46875 -3.796875 C 31.164062 -2.148438 33.171875 -1.328125 35.484375 -1.328125 Z M 127.90625 20 L 127.90625 21.34375 C 124.53125 22.144531 121.148438 22.546875 117.765625 22.546875 C 103.179688 22.546875 89.046875 15.253906 75.359375 0.671875 L 31.203125 -46.421875 L 62.6875 -85.890625 C 63.394531 -86.785156 63.75 -87.585938 63.75 -88.296875 C 63.75 -89.003906 63.617188 -89.625 63.359375 -90.15625 C 62.640625 -91.488281 61.347656 -92.15625 59.484375 -92.15625 L 58.15625 -92.15625 L 58.15625 -93.359375 L 86.296875 -93.359375 L 86.296875 -92.15625 L 85.765625 -92.15625 C 79.890625 -92.15625 75.085938 -90.066406 71.359375 -85.890625 L 40.28125 -50.015625 L 85.625 -1.59375 C 91.488281 4.71875 98.085938 9.894531 105.421875 13.9375 C 112.765625 17.976562 120.257812 20 127.90625 20 Z M 127.90625 20 "/></g></g></g></svg>